<?xml version="1.0" encoding="UTF-8"?>
<svg id="Camada_1" xmlns="http://www.w3.org/2000/svg" version="1.1" viewBox="0 0 69.32 198.33">
  <!-- Generator: Adobe Illustrator 30.6.0, SVG Export Plug-In . SVG Version: 2.1.4 Build 109)  -->
  <defs>
    <style>
      .st0 {
        fill: #bf1818;
      }

      .st1, .st2 {
        fill-rule: evenodd;
      }

      .st1, .st3 {
        fill: #fff;
      }
    </style>
  </defs>
  <path class="st2" d="M34.08,194.76c.08.18.22.36.21.54-.05.68.48.69.91.82.47.14.76-.07.86-.52.2-.85.38-1.7.56-2.55.11-.53.22-1.06.25-1.6.01-.26-.17-.54-.27-.81-.21.1-.47.16-.63.31-.25.24-.45.54-.65.83-.26.39-.46.4-.73,0-.31-.48-.6-.92-.13-1.47.06-.07.06-.2.04-.3-.05-.36-.12-.71-.18-1.07-.26.25-.54.48-.76.76-.85,1.05-1.7,2.11-2.53,3.19-.32.41-.56.88-.87,1.3-.14.19-.36.36-.58.45-.11.04-.43-.13-.43-.21-.01-.2.07-.43.19-.61.21-.32.46-.61.71-.93-.12-.21-.34-.44-.34-.67,0-.52-.35-.58-.67-.51-.23.05-.52.3-.58.52-.24.88-.4,1.79-.59,2.71-.52.08-.98.18-1.23-.51-.08-.21-.54-.45-.75-.4-.6.17-.62-.2-.75-.58-.29-.82-.63-1.63-.99-2.56-.36.29-.56.49-.79.63-.22.13-.48.18-.73.28-.33-1.66-.38-1.76-1.09-2.09-.15-1.15-.28-2.27-.42-3.38-.09,0-.18.01-.27.02-.64.79-.24,1.77-.54,2.68-.06-.27-.09-.56-.2-.82-.07-.16-.25-.28-.38-.42-.13.16-.34.3-.37.48-.14.79-.21,1.59-.34,2.38-.04.26-.17.5-.26.75-.09.01-.18.03-.27.04-.21-.49-.54-.97-.61-1.47-.1-.73-.16-1.53.03-2.22.25-.93-.11-1.72-.27-2.56-.03-.13-.47-.22-.73-.25-.23-.03-.48.04-.72.06.15-.2.34-.38.45-.59.35-.67.8-1.33.98-2.05.2-.82.14-1.7.2-2.56-.06-.02-.12-.04-.18-.06-.09.13-.21.24-.25.38-.55,2.13-1.78,3.88-3.29,5.4-.51.51-1.4.65-2.16.98-.3-1.06.26-1.76.65-2.48.4-.73.87-1.42.47-2.51-.22.25-.51.42-.55.65-.14.67-.59,1.12-.92,1.66-.68,1.14-2.21,1.3-2.64,2.6-.05.14-.31.21-.59.28.36-.82,1.24-1.7-.35-2.09-.66.49-1.34.99-2.1,1.55-.21-.58-.4-1.11-.6-1.64-.05.01-.11.02-.16.04l-.05.74c-.48-.66.34-1.54-.53-2.06-.19.49-.37.93-.54,1.37l-.25-.02c-.36-1.13-.72-2.26-1.09-3.4-.23-.7-.75-1.32-.61-2.13,0-.06-.05-.18-.1-.19-.89-.28-.54-1-.61-1.59-.05-.5-.18-1.01-.27-1.51-.25.01-.49.03-.99.05.27-.41.44-.65.6-.9.12-.2.34-.55.3-.59-.79-.75-.34-1.65-.18-2.4.46-2.22.7-4.45.83-6.71.09-1.49.5-2.96.83-4.42.2-.86.52-1.7.79-2.54.09,0,.18,0,.27,0-.01.21.05.46-.05.6-.72.96-.43,1.96-.24,3.23.28-.33.5-.46.54-.63.26-1.26.5-2.52.7-3.78.08-.49-.01-.91-.69-.94-.16,0-.41-.4-.43-.63-.18-3.13-.01-6.24.4-9.35.02-.18.07-.38.01-.53-.06-.14-.24-.3-.38-.31-.14-.02-.37.09-.43.21-.46.92-.98,1.83-1.3,2.81-.21.65-.36,1.51-.1,2.09.54,1.27.2,2.46-.06,3.63-.23,1.02-.69,1.97-.15,3.02.06.11,0,.29-.04.73-.48-.31-.93-.45-1.09-.74-.25-.45-.39-.99.12-1.48.23-.22.38-.6.4-.92.09-1.72.03-3.45.22-5.16.22-1.93.7-3.84.97-5.77.16-1.09.22-2.21.16-3.31-.16-3.31.54-6.5,1.34-9.66.15-.59-.01-.96-.12-1.46-.15-.71.08-1.51-.66-2.05-.04-.03.13-.31.18-.48.21-.62.51-1.23.6-1.87.29-1.89.51-3.79.76-5.69.02-.12.08-.27.04-.36-.48-1.14-.12-2.28-.07-3.43.09-2.08.05-4.16.07-6.24,0-1,.04-2,.06-2.97,1.25-.43.8-1.46.97-2.28-.88.17-1.2-.1-.99-.91.16-.63.49-1.21.67-1.83.13-.45.14-.93.23-1.51-.33.15-.51.23-.7.32-.06-.09-.13-.16-.12-.22.1-1.93.12-3.86.34-5.77.16-1.39.59-2.74.87-4.11.07-.31.06-.66,0-.97-.38-1.7-.35-3.37-.13-5.12.24-1.98.14-4.01.06-6.01-.15-3.54-.76-7.07-.35-10.64.25-2.1.37-4.22.45-6.34.03-.74-.22-1.5-.34-2.25-.02-.12-.14-.27-.1-.36.6-1.26.01-2.54.05-3.8.05-1.59.13-3.19.15-4.78.01-1.21-.07-2.41-.07-3.62,0-1.28.1-2.56.06-3.84-.02-.65-.28-1.29-.34-1.94-.08-.86-.06-1.73-.12-2.6-.14-1.94-.37-3.89-.1-5.84.02-.12-.01-.27-.07-.37-.95-1.54-.68-3.29-.79-4.96-.08-1.11.12-2.23.19-3.33-1.08-.2-1.22-.07-1.07.93.06.39.06.78.09,1.23-.81-.02-1.08-.55-1.1-1.01-.06-1.31,0-2.64.95-3.7.75-.83.61-1.86.68-2.85.05-.74-.02-1.51.2-2.19.33-1.01.03-1.9-.22-2.83-.16-.61-.26-1.25-.43-2.08.54.37,1,.61,1.37.95.47.43.94.64,1.61.63.42,0,.88.33,1.26.6.43.31.77.63.94-.19.02-.1.14-.22.24-.27,1.04-.48,1.34-1.35,1.3-2.41-.01-.47.17-.72.57-1.04.55-.43,1.16-1.09,1.27-1.73.24-1.33,1.35-1.93,2.05-2.86.4-.52.89.08,1.31.35,1.24.82,1.23,2.17,1.47,3.41.11.57.09,1.19.77,1.46.1.04.18.18.22.3.34.91.67,1.83.97,2.64.34.13.61.3.91.32.23.02.48-.13.71-.24.68-.33,1.31-.79,2.02-.99.4-.11.93.15,1.38.3.8.27,1.38-.14,1.43-1,.05-.91.15-1.81.23-2.77.55.14.93.33,1.28.29.29-.03.65-.28.8-.54.27-.47.3-1.1,1.04-1.17.06,0,.17-.35.12-.51-.22-.88.04-1.34.95-1.49.48-.08.63-.32.68-.76.06-.62.27-1.06,1.05-.73.16.07.5-.06.63-.21.63-.76,1.23-1.55,1.83-2.34.2-.26.34-.56.55-.8.15-.17.38-.4.56-.4,1.51.04,3.03.06,4.54.24.46.05.83.65,1.3.82.69.25,1.45.34,2.17.52.46.12.89.38,1.35.43,2.12.26,4.04,1.27,6.18,1.49.95.1,1.88.8,2.73,1.36.72.47,1.29,1.16,1.98,1.67.31.23.75.31,1.14.41.57.15,1.15.26,1.74.36.17.03.35-.02.52-.08.54-.17.99-.22,1.58.12.41.24,1.19.08,1.7-.14.44-.19.73-.24,1,.13.66.91,1.23,1.86,1.36,3.04.1.93.25,1.87.55,2.75.3.89.81,1.71,1.22,2.57.09.18.24.39.22.57-.14,1.63-.27,3.26-.47,4.88-.09.7,0,1.31.14,2.01.28,1.31.31,2.7.26,4.05-.03.82-.33,1.58.4,2.3.16.16-.12.77-.19,1.18-.11.6-.23,1.19-.33,1.79-.02.1.06.25.14.33.23.25.68.47.69.71.01.73-.13,1.46-.25,2.18-.09.49-.33.96-.37,1.46-.21,2.6-.35,5.2-.59,7.8-.09.95-.53,1.88-.56,2.84-.06,1.63-.25,3.27.34,4.89.18.49-.12,1.15-.19,1.73-.05.36-.09.73-.15,1.23.32-.1.49-.16.77-.25.04,2.16.34,4.27-.4,6.41-.17-.64-.34-1.27-.51-1.9-.07.02-.14.03-.21.05-.04,3.12-.08,6.23-.12,9.52.36-.23.61-.4.92-.6l-.19,2.89c-.53.17-1.06.2-1.37.48-.63.57.01,1,.39,1.44-.12.12-.19.25-.29.28-.64.17-.61.54-.51,1.11.42,2.36.23,4.72-.03,7.08-.16,1.46-.35,2.92-.54,4.37-.15,1.09-.17,2.15.67,3.19,1.01-3.97,1.17-7.93.94-11.94.15-.02.29-.05.44-.07.12.24.33.47.33.71.02,1.09-.01,2.18-.03,3.3.63.16.74-.32.88-.65.16-.36.19-.77.28-1.2.64.46.54,1.35-.36,3.93-.17-.28-.3-.49-.52-.86-.18.52-.43.9-.44,1.3-.06,1.91-.06,3.82-.05,5.72,0,.17.26.33.4.49.04.48.18,1.05.1,1.59-.08.57-.35,1.11-.62,1.86,1.32.91.16,2.63.73,4.05.15-.29.28-.53.42-.79.59.97.72,2.15.22,3.16-.83,1.69-.82,3.47-.78,5.28.01.74-.13,1.48-.18,2.23-.03.4,0,.81.01,1.22.08.02.16.04.25.06.16-.25.31-.5.5-.81.61.29.88.85.92,1.4.16,1.84.13,3.68-.43,5.47-.11.38-.06.8-.09,1.22.59.12.83-.05.92-.57.44-2.63.91-5.26,1.35-7.76.47,2.23.84,4.64.52,7.1-.16,1.25-.42,2.5-.5,3.75-.08,1.17-.11,2.38.07,3.54.28,1.81-.18,3.52-.49,5.26-.43,2.4-1.17,4.76-.82,7.24.58,4.17.11,8.32-.3,12.46-.34,3.38-.41,6.77-.37,10.18.03,2.08-.48,4.19-.85,6.26-.51,2.84-1.11,5.66-.92,8.56.02.26.07.51.09.76.04.5.19,1.01-.28,1.43-.11.1-.08.34-.13.5-.16.62-.1,1.2-.7,1.8-.51.51-.5,1.67-.48,2.54.03.92.36,1.84.53,2.76.1.51-.28.56-.63.51-.62-.09-.78.13-.68.72.2,1.15.39,2.3.49,3.46.05.57-.04,1.18-.2,1.73-.15.52-.48.92-1.16.56-.18-.09-.54-.06-.7.06-.48.37-.84.33-.88-.25-.04-.54-.36-.63-.73-.71-.63-.14-1.26-.29-1.9-.34-.89-.06-1.14.21-1.2,1.09-.02.31,0,.63-.09.92-.05.19-.22.42-.39.49-.58.22-1.17.46-1.79.55-.45.07-.94-.05-1.39-.16-.22-.05-.41-.24-.62-.36.08.45.29.86.18,1.16-.11.29-.51.5-.83.68-.68.38-1.1.92-1.37,1.67-.1.31-.61.66-.94.67-1.36.02-2.72-.08-4.08-.14-1.11-.05-1.76-.89-2.55-1.49-.44-.33-.97-.56-1.64-.95,0,.76-.02,1.25.02,1.73.1,1.18-.34,1.55-1.52,1.19-.43-.13-.69-.31-.89.34-.18.59-.79.22-1.21.18-.16-.01-.31-.16-.69-.37.01.49-.1.89.05,1.14.47.76.44.9-.55,1.18.07.7-.28.98-.97.82-.58-.14-.99-.75-.9-1.27.03-.16.02-.42-.07-.48-.75-.46-.38-1.12-.39-1.71.07-.03.13-.05.2-.08h.02ZM9.3,63.29c-.11,0-.22-.02-.33-.03-.1.29-.28.58-.28.87,0,.58.13,1.15.17,1.73.08,1.09-.05,2.23.24,3.27.49,1.8.54,3.59.51,5.42,0,.8-.03,1.6-.03,2.4,0,1.1.03,2.2.04,3.31.01,1.12,0,2.24.05,3.36.03.76.16,1.51.18,2.27.03,1.31-.02,2.63,0,3.95,0,1.16.08,2.32.09,3.49.02,1.42.03,2.85,0,4.27-.03,1.88-.13,3.75-.1,5.63.01.76.27,1.52.42,2.28.12-.01.23-.03.34-.03.02-.35.07-.7.06-1.06,0-.41-.11-.82-.09-1.21.16-2.49.33-4.98.53-7.47.22-2.83.48-5.66.7-8.49.01-.14-.09-.31-.18-.43-.8-1.01-1.09-2.2-.9-3.42.25-1.73.17-3.44,0-5.16-.16-1.45-.34-2.91-.4-4.36-.08-1.85,0-3.7-.07-5.54-.05-1.13-.22-2.27-.41-3.39-.09-.56-.34-1.1-.52-1.65h0Z"/>
  <g>
    <g>
      <path class="st1" d="M56.71,40.8c0,11.44-9.27,20.7-20.71,20.7s-20.71-9.27-20.71-20.7,9.27-20.71,20.71-20.71,20.71,9.27,20.71,20.71Z"/>
      <path class="st0" d="M45.83,43.82c5.43-5.43,5.43-14.23,0-19.66-5.43-5.43-14.23-5.43-19.66,0-5.43,5.43-5.43,14.23,0,19.66,5.43,5.43,14.23,5.43,19.66,0Z"/>
    </g>
    <path class="st3" d="M22.69,113.8c-.12.17-.2-.14-.12-.27.51-.85,1.01-1.6.85-3.27-.15-1.63-.88-2.59-1.6-3.03-.74-.41-2.94-.61-3.79,1.4-.46,1.06-.63,2.79-.43,4.05.37,2.35,1.8,2.83,2.5,3.07l2.05.75c1.05.38,2.71.95,3.4,4.39.37,1.84.38,4.56-.15,6.54-.88,3.24-2.74,3.92-3.88,4.08-1.28.24-3.44-.31-4.73-3.88-.32-.89-.54-1.87-.8-3.37l2.53-2.86c.12-.14.15.24.08.34-.72.92-.94,2.01-.77,3.41.22,1.84,1.05,3.03,1.83,3.51.92.55,3.25.75,4.2-1.53.49-1.12.69-3.23.48-4.6-.37-2.45-1.77-2.86-2.62-3.2l-1.74-.61c-.69-.24-2.77-1.02-3.51-4.15-.37-1.57-.39-3.95-.02-5.75.52-2.49,1.43-3.75,2.45-4.26,1.19-.61,3.68-.24,4.88,1.87.74,1.33,1.03,2.66,1.43,4.73l-2.51,2.66h0Z"/>
    <path class="st3" d="M29.69,129.15s1.33,1.39,1.47,1.57c.06.04.06.27,0,.27h-4.28s-.04-.24,0-.27c.14-.17,1.48-1.57,1.48-1.57v-22.37s-1.34-1.43-1.48-1.57c-.04-.07-.04-.31,0-.31h4.28c.06,0,.06.24,0,.31-.14.14-1.47,1.57-1.47,1.57v9.5h7.16v-9.5s-1.32-1.43-1.46-1.57c-.05-.07-.05-.31,0-.31h4.28c.06,0,.06.24,0,.31-.14.14-1.46,1.57-1.46,1.57v22.37s1.33,1.39,1.46,1.57c.06.04.06.27,0,.27h-4.28s-.05-.24,0-.27c.14-.17,1.46-1.57,1.46-1.57v-10.25h-7.16v10.25Z"/>
    <path class="st3" d="M45.29,130.71c.06.04.06.27,0,.27h-4.28s-.05-.24,0-.27c.14-.17,1.48-1.57,1.48-1.57v-22.37s-1.34-1.43-1.48-1.57c-.05-.07-.05-.31,0-.31h4.28c.06,0,.06.24,0,.31-.14.14-1.46,1.57-1.46,1.57v22.37s1.32,1.39,1.46,1.57Z"/>
    <path class="st3" d="M57.25,130.99l-7.92-23.53s0,21.73,0,21.69c0,0,1.32,1.39,1.48,1.57.05.04.05.27,0,.27h-4.3s-.05-.24,0-.27c.15-.17,1.48-1.57,1.48-1.57v-22.37s-1.33-1.43-1.48-1.57c-.05-.07-.05-.31,0-.31h3.57l6.44,18.25v-16.38s-1.32-1.43-1.48-1.57c-.05-.07-.05-.31,0-.31h4.3s.05.24,0,.31c-.15.14-1.48,1.57-1.48,1.57v24.21h-.62Z"/>
    <path class="st3" d="M20.31,162.66s.05.27,0,.27h-4.3s-.05-.24,0-.27c.15-.17,1.48-1.56,1.48-1.56v-22.37s-1.32-1.43-1.48-1.57c-.05-.07-.05-.31,0-.31h4.3s.05.24,0,.31c-.15.14-1.48,1.57-1.48,1.57v13.49l5.94-13.59-1.68-1.36c-.11-.07-.12-.34,0-.41h5.28c.12,0,.11.34.01.41l-1.97,1.36-4.11,9.43,4.59,12.98,1.79,1.46c.14.1.19.44.05.44h-5.28c-.14,0-.12-.38-.02-.44l1.97-1.43-3.97-11.07-2.6,5.79v5.31s1.32,1.39,1.48,1.56h0Z"/>
    <path class="st3" d="M41.76,162.66c.06.03.06.27,0,.27h-4.28s-.05-.24,0-.27c.14-.17,1.48-1.56,1.48-1.56l-.92-4.94h-5.22l-.88,4.94s1.42,1.39,1.57,1.56c.05.03.05.27,0,.27h-4.29s-.05-.24,0-.27c.15-.17,1.49-1.56,1.49-1.56l3.94-22.38s-1.31-1.43-1.45-1.57c-.05-.07-.05-.31,0-.31h4.28c.06,0,.06.24,0,.31-.14.14-1.46,1.57-1.46,1.57l4.25,22.38s1.36,1.39,1.5,1.56ZM37.57,153.74l-2.25-11.92-2.09,11.92h4.34Z"/>
    <path class="st3" d="M53.28,162.93l-7.92-23.53s0,21.72,0,21.69c0,0,1.33,1.39,1.48,1.56.05.03.05.27,0,.27h-4.3s-.05-.24,0-.27c.15-.17,1.48-1.56,1.48-1.56v-22.38s-1.32-1.43-1.48-1.57c-.05-.07-.05-.31,0-.31h3.57l6.44,18.25v-16.38s-1.32-1.43-1.48-1.57c-.05-.07-.05-.31,0-.31h4.3s.05.24,0,.31c-.15.14-1.48,1.57-1.48,1.57v24.21h-.62Z"/>
    <path class="st3" d="M29.74,72.88c-.14.14-1.46,1.57-1.46,1.57v22.37s1.33,1.4,1.46,1.57c.05.03.05.27,0,.27h-4.28c-.06,0-.06-.24,0-.27.14-.17,1.46-1.57,1.46-1.57v-21.18l-3.83,22.51c-.12.72-.19.62-.29,0l-3.96-22.17v20.84s1.32,1.4,1.46,1.57c.06.03.06.27,0,.27h-4.28s-.04-.24,0-.27c.14-.17,1.48-1.57,1.48-1.57v-22.37s-1.34-1.43-1.48-1.57c-.04-.07-.04-.31,0-.31h3.47l3.48,18.59,3.19-18.59h3.59s.05.24,0,.31h0Z"/>
    <path class="st3" d="M38.73,72.88c-.04-.07-.04-.31,0-.31h4.28c.06,0,.06.24,0,.31-.14.14-1.46,1.57-1.46,1.57v14.98c0,2.76.15,6.27-1.39,8.37-1.45,1.97-4.64,1.94-6.07.17-1.65-1.97-1.57-4.8-1.57-8v-15.6s-1.33-1.36-1.48-1.5c-.05-.07-.05-.31,0-.31h4.3s.05.24,0,.31c-.15.14-1.48,1.57-1.48,1.57v14.71c0,1.87-.09,5.24,1.03,6.68.86,1.16,3.34,1.06,4.17.03,1.25-1.5,1.14-5.07,1.14-6.74v-14.74s-1.32-1.36-1.48-1.5h0Z"/>
    <path class="st0" d="M48.76,78.7s.01.05,0,.05h-.85s-.01-.05,0-.05c.03-.03.29-.31.29-.31v-4.45s-.26-.29-.29-.31c-.01-.01-.01-.06,0-.06h.85s.01.05,0,.06c-.03.03-.29.31-.29.31v2.68l1.18-2.7-.33-.27s-.03-.07,0-.08h1.05s.02.07,0,.08l-.39.27-.82,1.87.91,2.58.35.29s.04.09.01.09h-1.05s-.03-.07,0-.09l.39-.29-.79-2.2-.52,1.15v1.06s.27.28.29.31h0Z"/>
    <path class="st0" d="M53.13,78.7s.01.05,0,.05h-.85s-.01-.05,0-.05c.03-.03.29-.31.29-.31l-.19-.98h-1.04l-.18.98s.28.28.31.31c0,0,0,.05,0,.05h-.85s-.01-.05,0-.05c.03-.03.3-.31.3-.31l.78-4.45s-.26-.29-.29-.31c-.01-.01-.01-.06,0-.06h.85s.01.05,0,.06c-.03.03-.29.31-.29.31l.84,4.45s.27.28.3.31h0ZM52.3,76.93l-.45-2.37-.41,2.37h.86Z"/>
    <path class="st0" d="M50.24,85.76s.01.06,0,.06h-.57l-.56-2.23h-.56v1.86s.27.28.29.31c0,0,0,.06,0,.06h-.85s-.01-.05,0-.06c.03-.03.29-.31.29-.31v-4.45s-.26-.29-.29-.31c-.01-.02-.01-.06,0-.06h1.15c.29,0,.64,0,.84.67.12.41.12,1.03.05,1.41-.13.63-.39.8-.63.87l.47,1.88s.34.27.37.3h0ZM49.13,83.07c.16,0,.49.05.64-.48.06-.25.06-.81,0-1-.13-.51-.5-.46-.63-.46h-.59v1.94h.58,0Z"/>
    <path class="st0" d="M53.13,85.75s.01.06,0,.06h-.85s0-.05,0-.06c.03-.03.3-.31.3-.31l-.19-.98h-1.04l-.18.98s.28.28.31.31c.01,0,.01.06,0,.06h-.85s-.01-.05,0-.06c.03-.03.3-.31.3-.31l.79-4.45s-.26-.29-.29-.31c-.01-.02-.01-.06,0-.06h.85s.01.05,0,.06c-.03.03-.29.31-.29.31l.84,4.45s.27.28.3.31h0ZM52.3,83.98l-.45-2.37-.41,2.37h.86Z"/>
    <path class="st0" d="M49.29,92.67s.26.28.29.31c.01,0,.01.05,0,.05h-.85s-.01-.05,0-.05c.03-.03.29-.31.29-.31v-4.29h-.8l-.11.54c-.01.05-.04.05-.03,0v-1.3c0-.07.02-.05.04-.01l.09.25h1.9l.09-.25s.04-.05.04.01v1.3s-.03.05-.03,0l-.11-.54h-.8v4.29Z"/>
    <path class="st0" d="M50.73,92.99s.29-.31.29-.31v-4.45s-.27-.28-.29-.31c-.01-.01-.01-.06,0-.06h1.93l.1-.21c.02-.06.04-.02.04.03v1.52s-.02.03-.03,0c-.01-.06-.16-.85-.16-.85h-1.32v1.76h.87s.17-.85.19-.91c0-.02.03-.02.03,0v2.32s-.02.02-.03,0c-.02-.06-.19-.92-.19-.92h-.87v1.92h1.35l.16-1.01s.03-.04.03.01v1.88s-.02.06-.04,0l-.17-.38h-1.9s-.01-.05,0-.05h0Z"/>
    <path class="st0" d="M48.11,100.14s.3-.31.3-.31v-4.45s-.27-.28-.3-.31c-.01-.01-.01-.06,0-.06h1.07c.31,0,.7-.01.92.9.21.86.22,2.5,0,3.36-.25.93-.5.93-.91.93h-1.08s-.01-.05,0-.05h0ZM49.11,99.7c.29,0,.55.07.75-.65.19-.68.18-2.19.01-2.86-.18-.74-.53-.71-.75-.71h-.44v4.22h.43Z"/>
    <path class="st0" d="M52.74,95.68c.31.79.32,2.06.22,2.83-.1.8-.29,1.41-.7,1.69-.26.19-.72.15-1.02-.39-.4-.72-.45-1.74-.4-2.6.03-.76.15-1.57.58-2.06.13-.14.25-.22.36-.25.26-.07.68.07.96.79ZM51.7,99.72c.2.14.47.08.65-.23.3-.5.39-1.5.39-2.01,0-.43-.07-1.31-.37-1.77-.22-.35-.53-.32-.7-.21-.52.33-.7,1.98-.5,3.03.12.62.27,1.02.54,1.2h0Z"/>
    <path class="st0" d="M54.33,101.72h-7.76v-29.96h7.76v29.96ZM46.7,101.59h7.5v-29.71h-7.5v29.71Z"/>
  </g>
</svg>