<svg width="267" height="114" viewBox="0 0 267 114" fill="none" xmlns="http://www.w3.org/2000/svg">
<path fill-rule="evenodd" clip-rule="evenodd" d="M259.287 56.5385C259.524 56.4384 259.767 56.2463 260.001 56.2614C260.9 56.3231 260.912 55.6276 261.077 55.0642C261.263 54.4395 260.984 54.065 260.396 53.9246C259.279 53.6608 258.157 53.4165 257.031 53.1884C256.332 53.0441 255.629 52.8929 254.922 52.8636C254.574 52.8476 254.212 53.0947 253.857 53.2234C253.991 53.5059 254.068 53.8442 254.271 54.0587C254.589 54.3894 254.977 54.6588 255.363 54.9147C255.882 55.2585 255.884 55.5226 255.353 55.8776C254.723 56.292 254.135 56.6696 253.42 56.0557C253.332 55.9807 253.154 55.9824 253.024 56.0004C252.552 56.0687 252.088 56.1574 251.617 56.2424C251.948 56.5806 252.254 56.9534 252.62 57.2511C254.007 58.3804 255.405 59.5005 256.821 60.5953C257.364 61.0166 257.983 61.3339 258.53 61.7488C258.779 61.9365 259.008 62.2186 259.117 62.5095C259.171 62.6515 258.949 63.0759 258.836 63.0818C258.571 63.0977 258.265 62.9854 258.034 62.8352C257.61 62.5635 257.227 62.2219 256.803 61.8909C256.523 62.0443 256.223 62.3416 255.923 62.3419C255.241 62.3471 255.164 62.8074 255.253 63.2256C255.316 63.5266 255.646 63.9176 255.935 63.9924C257.098 64.3087 258.291 64.5214 259.508 64.7784C259.618 65.462 259.743 66.0805 258.838 66.4111C258.568 66.5124 258.241 67.1247 258.315 67.4001C258.534 68.193 258.051 68.221 257.549 68.3963C256.465 68.7781 255.405 69.224 254.18 69.7022C254.565 70.1759 254.831 70.4373 255.012 70.7493C255.178 71.0372 255.252 71.3785 255.375 71.7198C253.183 72.1551 253.06 72.2263 252.624 73.1548C251.111 73.3471 249.639 73.5288 248.173 73.7141C248.178 73.8333 248.187 73.9493 248.193 74.0652C249.233 74.9146 250.53 74.385 251.728 74.7728C251.366 74.855 250.988 74.8931 250.646 75.0326C250.432 75.1211 250.275 75.3584 250.089 75.5311C250.302 75.7033 250.489 75.9826 250.72 76.024C251.757 76.2034 252.809 76.2981 253.85 76.4678C254.19 76.5195 254.508 76.6953 254.837 76.8123C254.855 76.929 254.874 77.049 254.893 77.1657C254.248 77.4439 253.62 77.875 252.952 77.9669C251.99 78.1025 250.943 78.1732 250.026 77.9257C248.805 77.5924 247.758 78.0723 246.656 78.2879C246.483 78.3228 246.369 78.906 246.324 79.2495C246.281 79.5569 246.372 79.8828 246.401 80.1982C246.143 79.9967 245.905 79.7536 245.621 79.6032C244.735 79.1366 243.87 78.5394 242.926 78.3066C241.845 78.0451 240.687 78.1152 239.56 78.0422C239.535 78.123 239.51 78.2039 239.485 78.2847C239.653 78.3979 239.803 78.566 239.988 78.611C242.796 79.3441 245.101 80.9652 247.105 82.9626C247.783 83.6401 247.964 84.8166 248.397 85.8147C246.996 86.2122 246.082 85.4732 245.133 84.9563C244.168 84.4285 243.258 83.8086 241.826 84.336C242.15 84.6276 242.38 85.0054 242.679 85.0677C243.564 85.2538 244.154 85.853 244.869 86.2788C246.367 87.1744 246.582 89.1977 248.292 89.7706C248.476 89.832 248.566 90.1744 248.663 90.5535C247.587 90.0713 246.429 88.9107 245.913 91.0186C246.553 91.8849 247.222 92.7928 247.959 93.7941C247.189 94.0774 246.496 94.3295 245.804 94.5815C245.819 94.6518 245.834 94.7254 245.853 94.7959L246.825 94.8589C245.956 95.4922 244.799 94.4141 244.109 95.5604C244.755 95.8168 245.333 96.0457 245.912 96.2746L245.89 96.6097C244.399 97.0871 242.907 97.5612 241.418 98.0486C240.495 98.3517 239.683 99.0348 238.619 98.857C238.541 98.8453 238.384 98.9275 238.363 98.9954C238 100.176 237.04 99.7147 236.264 99.7963C235.6 99.8654 234.936 100.03 234.279 100.149C234.297 100.484 234.313 100.798 234.346 101.454C233.809 101.095 233.49 100.87 233.161 100.667C232.9 100.512 232.438 100.211 232.378 100.274C231.387 101.324 230.203 100.72 229.221 100.514C226.296 99.9022 223.359 99.5929 220.379 99.4195C218.422 99.3058 216.482 98.7577 214.556 98.316C213.418 98.0574 212.322 97.6267 211.211 97.2742C211.215 97.1557 211.216 97.0402 211.22 96.9218C211.49 96.9392 211.831 96.8558 212.011 96.9895C213.278 97.9427 214.598 97.5565 216.26 97.3047C215.829 96.9303 215.65 96.6415 215.426 96.5972C213.773 96.2558 212.112 95.9402 210.445 95.6671C209.795 95.5623 209.25 95.682 209.205 96.5799C209.195 96.7871 208.678 97.1231 208.377 97.1432C204.257 97.3841 200.153 97.1609 196.063 96.6185C195.828 96.59 195.562 96.5233 195.362 96.5994C195.18 96.6734 194.973 96.9107 194.948 97.0972C194.926 97.2772 195.067 97.5899 195.224 97.6694C196.44 98.2795 197.639 98.9709 198.923 99.3941C199.779 99.6706 200.907 99.8659 201.674 99.5329C203.349 98.8133 204.919 99.2649 206.46 99.6123C207.805 99.914 209.055 100.523 210.433 99.8072C210.583 99.7312 210.818 99.819 211.393 99.8563C210.979 100.496 210.802 101.085 210.412 101.301C209.817 101.631 209.109 101.82 208.467 101.141C208.183 100.843 207.672 100.638 207.252 100.614C204.988 100.49 202.707 100.58 200.462 100.325C197.916 100.038 195.408 99.4037 192.866 99.0409C191.429 98.8355 189.954 98.753 188.505 98.824C184.146 99.0362 179.946 98.1139 175.777 97.0583C174.995 96.8624 174.507 97.0781 173.848 97.2235C172.911 97.4267 171.857 97.1142 171.15 98.0912C171.114 98.1384 170.743 97.9229 170.523 97.8493C169.707 97.572 168.905 97.1801 168.063 97.0496C165.575 96.6606 163.065 96.3725 160.571 96.049C160.41 96.0287 160.221 95.9406 160.092 95.9982C158.591 96.63 157.092 96.1533 155.576 96.088C152.837 95.9665 150.094 96.0196 147.353 95.9936C146.035 95.9807 144.715 95.9413 143.447 95.9185C142.885 94.2719 141.521 94.8631 140.438 94.6345C140.665 95.8041 140.305 96.2163 139.239 95.9392C138.415 95.7241 137.645 95.2915 136.827 95.0503C136.238 94.8768 135.606 94.859 134.835 94.7496C135.034 95.1914 135.134 95.4223 135.25 95.6739C135.126 95.7484 135.041 95.8419 134.962 95.8368C132.426 95.7019 129.876 95.6719 127.356 95.3831C125.53 95.1689 123.75 94.5982 121.944 94.227C121.531 94.1409 121.069 94.1472 120.661 94.2395C118.419 94.7441 116.216 94.7002 113.917 94.4158C111.312 94.1018 108.64 94.232 106.002 94.3414C101.333 94.5369 96.6945 95.348 91.9889 94.7986C89.2206 94.4739 86.4283 94.3159 83.6395 94.2044C82.6629 94.1641 81.6659 94.4888 80.6793 94.6525C80.5159 94.6815 80.3179 94.8369 80.2027 94.7833C78.5394 93.9924 76.8637 94.768 75.1954 94.7159C73.096 94.6523 70.9958 94.5491 68.894 94.5217C67.3059 94.5045 65.7193 94.6161 64.1271 94.6118C62.4392 94.6079 60.7527 94.4821 59.0682 94.5279C58.2129 94.5483 57.3696 94.8929 56.5104 94.9724C55.3756 95.0836 54.2272 95.0487 53.0879 95.1266C50.5273 95.3103 47.9656 95.6127 45.3936 95.2612C45.2366 95.2411 45.0399 95.2745 44.9092 95.3584C42.8758 96.6156 40.5709 96.2616 38.3753 96.4096C36.9181 96.5097 35.441 96.2556 33.9832 96.161C33.7187 97.5957 33.8952 97.7721 35.2074 97.5701C35.7168 97.4943 36.2412 97.492 36.8211 97.4471C36.791 98.5208 36.102 98.8753 35.487 98.9014C33.761 98.9776 32.0113 98.9103 30.6094 97.6481C29.5129 96.6597 28.1594 96.8392 26.8559 96.7546C25.8873 96.6918 24.8658 96.784 23.968 96.4948C22.6343 96.0618 21.4646 96.4578 20.2399 96.7842C19.4314 96.9991 18.5986 97.1298 17.506 97.3526C17.9874 96.6414 18.3039 96.0318 18.7508 95.546C19.3218 94.9265 19.5897 94.3037 19.5842 93.4224C19.5806 92.8679 20.0223 92.2597 20.381 91.7617C20.7937 91.1945 21.2052 90.7461 20.1322 90.5148C19.9958 90.4829 19.8377 90.3274 19.774 90.1913C19.1414 88.8107 17.99 88.416 16.5985 88.4676C15.9809 88.4837 15.6472 88.241 15.23 87.7091C14.6642 86.9762 13.7992 86.181 12.9547 86.0339C11.1978 85.722 10.4097 84.2488 9.19056 83.3218C8.50263 82.7954 9.29334 82.1439 9.65219 81.5931C10.7346 79.9508 12.514 79.9672 14.147 79.6475C14.8984 79.5016 15.7141 79.5314 16.0697 78.624C16.1178 78.4918 16.3124 78.3889 16.4612 78.3326C17.661 77.8792 18.8695 77.4462 19.9334 77.0565C20.1007 76.612 20.3257 76.2439 20.3539 75.8597C20.3768 75.5576 20.1873 75.2253 20.0419 74.9255C19.6052 74.0327 19.0071 73.1888 18.7413 72.2543C18.5946 71.7202 18.9398 71.0233 19.1401 70.4259C19.492 69.3731 18.9518 68.6023 17.8254 68.5325C16.6298 68.4616 15.4381 68.3315 14.1757 68.2233C14.3577 67.5026 14.6113 66.9977 14.5623 66.5326C14.5212 66.1505 14.1892 65.6769 13.8492 65.48C13.2296 65.1198 12.3946 65.0821 12.3031 64.1028C12.2953 64.0198 11.8427 63.8816 11.6379 63.9376C10.4787 64.2221 9.86764 63.8822 9.67226 62.6751C9.56808 62.0448 9.25518 61.8364 8.66524 61.7816C7.84569 61.7087 7.27045 61.4272 7.71007 60.3933C7.79945 60.1846 7.63121 59.7283 7.43415 59.5637C6.43337 58.7268 5.38647 57.9396 4.34966 57.1498C4.0104 56.8902 3.61678 56.7063 3.2985 56.4283C3.07402 56.229 2.77036 55.9288 2.7765 55.6817C2.83053 53.6792 2.86199 51.6685 3.09314 49.6807C3.16517 49.0783 3.94544 48.5878 4.1772 47.9627C4.51021 47.0473 4.62119 46.0481 4.86771 45.094C5.02553 44.4906 5.36285 43.9152 5.43881 43.3032C5.78517 40.5046 7.11053 37.9641 7.40648 35.1293C7.53755 33.8708 8.46445 32.6441 9.19718 31.5137C9.81271 30.5637 10.719 29.8076 11.3981 28.8947C11.7051 28.4824 11.8054 27.9016 11.9377 27.3856C12.1318 26.6294 12.2839 25.8606 12.4163 25.0905C12.4535 24.8718 12.3837 24.6264 12.3155 24.4075C12.0952 23.6872 12.0247 23.0953 12.4709 22.3159C12.7867 21.7688 12.5732 20.7387 12.2807 20.0632C12.0287 19.476 11.9645 19.0924 12.4454 18.7442C13.6496 17.8687 14.8955 17.1114 16.4459 16.948C17.6709 16.8196 18.9139 16.6164 20.0736 16.2231C21.2467 15.8274 22.329 15.1519 23.4526 14.6044C23.6942 14.4881 23.9609 14.291 24.2034 14.3133C26.3514 14.4922 28.4997 14.6678 30.6352 14.9383C31.5542 15.0539 32.3653 14.9515 33.2848 14.7537C35.0106 14.3773 36.8428 14.3411 38.6186 14.4133C39.704 14.454 40.7001 14.8552 41.6436 13.8803C41.8523 13.6629 42.6623 14.0355 43.1998 14.1363C43.9847 14.2862 44.7689 14.446 45.5586 14.5731C45.6923 14.5949 45.8834 14.4951 45.9958 14.3902C46.322 14.088 46.6214 13.4872 46.9351 13.4811C47.8921 13.4673 48.8563 13.6486 49.8082 13.8159C50.4536 13.9304 51.0758 14.2512 51.725 14.3065C55.1457 14.5877 58.5795 14.7675 62.0011 15.0851C63.2563 15.2027 64.4816 15.7804 65.7351 15.8221C67.8801 15.8952 70.0431 16.1477 72.1739 15.3719C72.8192 15.1333 73.6872 15.5262 74.4523 15.6253C74.933 15.6861 75.4175 15.7406 76.0685 15.8192C75.9314 15.3912 75.8601 15.1688 75.7426 14.795C78.5851 14.7385 81.3602 14.3476 84.1883 15.3262C83.3496 15.549 82.5172 15.7754 81.6816 16.0017C81.7052 16.0956 81.7255 16.1893 81.7458 16.283C85.8506 16.3348 89.9555 16.3865 94.2777 16.4424C93.9689 15.9671 93.7501 15.6295 93.4832 15.2196L97.2952 15.4668C97.5234 16.1679 97.5601 16.8731 97.9294 17.2797C98.6767 18.1102 99.2458 17.2661 99.8293 16.7596C99.9841 16.9148 100.163 17.0088 100.197 17.1397C100.416 17.9821 100.913 17.9483 101.653 17.8149C104.756 17.2572 107.875 17.509 110.979 17.8488C112.901 18.0593 114.823 18.3093 116.739 18.5622C118.177 18.7578 119.57 18.7821 120.94 17.6799C115.715 16.3446 110.494 16.128 105.215 16.4324C105.185 16.2358 105.154 16.0425 105.124 15.8458C105.434 15.6911 105.743 15.4108 106.053 15.4045C107.489 15.3756 108.924 15.4224 110.393 15.4418C110.609 14.6078 109.965 14.4605 109.532 14.2774C109.057 14.0717 108.513 14.0265 107.947 13.9073C108.559 13.066 109.721 13.1942 113.129 14.3885C112.758 14.6152 112.49 14.7826 111.999 15.0808C112.679 15.3228 113.189 15.643 113.706 15.66C116.22 15.7339 118.732 15.7417 121.245 15.7266C121.463 15.7242 121.68 15.3786 121.889 15.1975C122.519 15.146 123.27 14.9637 123.985 15.0629C124.73 15.164 125.442 15.5302 126.438 15.8786C127.643 14.1288 129.898 15.6641 131.77 14.9144C131.384 14.7112 131.068 14.5423 130.724 14.3583C132.001 13.5799 133.552 13.41 134.888 14.0641C137.112 15.1586 139.457 15.1424 141.841 15.0924C142.814 15.0731 143.794 15.2653 144.776 15.329C145.308 15.3635 145.848 15.3193 146.383 15.3111C146.41 15.2039 146.437 15.0935 146.46 14.9829C146.131 14.7767 145.798 14.5704 145.389 14.3162C145.765 13.5091 146.503 13.1511 147.239 13.0933C149.659 12.8873 152.08 12.9222 154.443 13.6561C154.938 13.807 155.502 13.7413 156.044 13.7765C156.203 13.0015 155.977 12.6734 155.292 12.5564C151.822 11.9684 148.361 11.3513 145.075 10.7753C148.017 10.1478 151.187 9.67035 154.424 10.0881C156.075 10.3008 157.711 10.6478 159.366 10.7551C160.912 10.8554 162.499 10.8989 164.024 10.6612C166.412 10.2915 168.661 10.896 170.946 11.3081C174.103 11.8824 177.215 12.8596 180.486 12.3986C185.983 11.6267 191.439 12.251 196.903 12.7968C201.361 13.2443 205.826 13.3391 210.317 13.2839C213.063 13.2508 215.829 13.9152 218.56 14.4025C222.295 15.0704 226.009 15.8721 229.839 15.6256C230.177 15.6046 230.511 15.5339 230.846 15.5061C231.502 15.453 232.178 15.2526 232.731 15.8725C232.861 16.0129 233.173 15.9836 233.396 16.0443C234.206 16.2618 234.973 16.1829 235.763 16.9666C236.441 17.6408 237.969 17.6277 239.111 17.5995C240.327 17.5628 241.533 17.1263 242.747 16.8982C243.425 16.7706 243.488 17.2696 243.419 17.7303C243.294 18.5438 243.589 18.7609 244.366 18.6266C245.88 18.3684 247.4 18.1073 248.929 17.9722C249.682 17.9088 250.485 18.0269 251.213 18.2358C251.9 18.4321 252.419 18.8716 251.948 19.7682C251.824 20.0044 251.869 20.4791 252.03 20.6908C252.517 21.3229 252.469 21.7982 251.697 21.8603C250.984 21.9197 250.868 22.3411 250.761 22.8225C250.579 23.652 250.379 24.4903 250.318 25.331C250.235 26.5102 250.593 26.8402 251.752 26.9187C252.155 26.9449 252.582 26.9263 252.967 27.0371C253.216 27.1093 253.525 27.3274 253.613 27.5574C253.909 28.3223 254.214 29.1109 254.333 29.9203C254.42 30.5133 254.263 31.1597 254.128 31.7646C254.062 32.0607 253.812 32.3117 253.649 32.5849C254.237 32.4745 254.782 32.203 255.175 32.344C255.555 32.4874 255.836 33.0237 256.067 33.4378C256.572 34.3417 257.278 34.8989 258.267 35.2468C258.671 35.3851 259.142 36.0525 259.147 36.485C259.178 38.282 259.048 40.085 258.968 41.8846C258.905 43.3554 257.801 44.211 257.011 45.2618C256.571 45.8502 256.269 46.5433 255.766 47.4312C256.769 47.4237 257.409 47.4586 258.039 47.4104C259.597 47.2837 260.084 47.863 259.6 49.4187C259.425 49.9848 259.195 50.3262 260.052 50.5929C260.824 50.8311 260.337 51.6343 260.288 52.192C260.27 52.4053 260.08 52.6008 259.803 53.1042C260.444 53.0864 260.978 53.2332 261.301 53.0331C262.308 52.4088 262.49 52.4503 262.86 53.7578C263.786 53.6693 264.149 54.1218 263.934 55.0384C263.756 55.7989 262.942 56.3499 262.264 56.2301C262.059 56.1904 261.706 56.2004 261.632 56.3178C261.024 57.3143 260.155 56.8225 259.38 56.8316C259.346 56.7436 259.315 56.6591 259.281 56.5711L259.287 56.5385ZM86.1303 89.3012C86.1175 89.4488 86.1013 89.5963 86.0886 89.7406C86.469 89.8742 86.8525 90.1135 87.2315 90.115C87.9903 90.1081 88.7526 89.9464 89.5111 89.8933C90.9488 89.7886 92.4547 89.9555 93.8175 89.5819C96.1838 88.9369 98.5522 88.8695 100.957 88.9033C102.011 88.9156 103.068 88.9445 104.123 88.9371C105.574 88.9322 107.027 88.8978 108.479 88.8797C109.954 88.8632 111.434 88.8701 112.908 88.8172C113.903 88.7794 114.897 88.603 115.894 88.5819C117.624 88.5456 119.358 88.6085 121.09 88.5922C122.62 88.5793 124.149 88.4904 125.68 88.4742C127.555 88.4505 129.431 88.4403 131.305 88.4694C133.776 88.5043 136.247 88.6414 138.718 88.607C139.718 88.5927 140.717 88.2483 141.715 88.0557C141.698 87.9028 141.682 87.7533 141.669 87.6006C141.206 87.5706 140.741 87.5108 140.279 87.5204C139.744 87.5319 139.204 87.6718 138.679 87.6377C135.399 87.425 132.117 87.1956 128.843 86.9404C125.113 86.6458 121.393 86.3088 117.663 86.0108C117.479 85.9956 117.25 86.1292 117.094 86.2511C115.762 87.3064 114.201 87.6868 112.595 87.4441C110.315 87.1082 108.069 87.2166 105.805 87.4558C103.896 87.662 101.978 87.9071 100.06 87.9873C97.6268 88.0902 95.1872 87.9847 92.7575 88.0812C91.2665 88.1429 89.7743 88.3761 88.2978 88.6202C87.5579 88.7438 86.8509 89.0708 86.1301 89.3045L86.1303 89.3012Z" fill="black"/>
<path fill-rule="evenodd" clip-rule="evenodd" d="M121.416 13.2856C121.738 13.1243 122.058 12.8411 122.387 12.8247C123.634 12.7687 124.887 12.795 126.141 12.8049C126.749 12.8082 127.016 13.0881 126.766 13.796C125.46 12.9267 124.203 13.8322 122.913 13.8585C122.449 13.8684 121.982 13.7927 121.515 13.7565C121.482 13.5984 121.449 13.4404 121.419 13.2823L121.416 13.2856Z" fill="black"/>
<path fill-rule="evenodd" clip-rule="evenodd" d="M263.721 46.1719C264.274 46.7612 264.754 47.2321 265.179 47.749C265.284 47.8807 265.205 48.1639 265.212 48.3779C264.507 48.2594 263.797 48.1705 263.112 47.9795C263.043 47.9564 263.086 47.321 263.172 46.995C263.237 46.7514 263.464 46.5472 263.721 46.1719Z" fill="black"/>
<path fill-rule="evenodd" clip-rule="evenodd" d="M92.4127 16.5255C91.7185 16.4761 91.0769 16.4333 90.284 16.3806C91.452 15.4653 92.0212 15.5081 92.4127 16.5255Z" fill="black"/>
<path fill-rule="evenodd" clip-rule="evenodd" d="M86.0611 89.314C86.7818 89.0803 87.4855 88.7531 88.2288 88.6297C89.7053 88.3856 91.1975 88.1523 92.6885 88.0906C95.1181 87.994 97.5578 88.0994 99.9911 87.9965C101.909 87.9162 103.824 87.6708 105.736 87.4648C108 87.2255 110.249 87.1173 112.526 87.4529C114.132 87.6956 115.69 87.3116 117.025 86.2597C117.184 86.1348 117.414 86.0045 117.594 86.0195C121.324 86.3174 125.044 86.6542 128.774 86.9488C132.048 87.2039 135.33 87.4331 138.61 87.6458C139.139 87.68 139.678 87.5401 140.21 87.5284C140.672 87.5188 141.137 87.5786 141.6 87.6086C141.616 87.7614 141.633 87.911 141.646 88.0636C140.648 88.2563 139.649 88.604 138.649 88.615C136.178 88.6495 133.707 88.5124 131.236 88.4777C129.362 88.4519 127.486 88.4589 125.611 88.4826C124.08 88.4988 122.551 88.5878 121.021 88.6007C119.292 88.6174 117.558 88.5545 115.825 88.5906C114.831 88.6087 113.837 88.7884 112.839 88.826C111.365 88.8789 109.885 88.8721 108.41 88.8887C106.958 88.9067 105.505 88.9412 104.054 88.9461C102.999 88.9536 101.942 88.9247 100.888 88.9125C98.4832 88.8787 96.1146 88.9495 93.7485 89.5913C92.3859 89.9616 90.8798 89.798 89.4421 89.9027C88.6803 89.9557 87.9213 90.1176 87.1626 90.1245C86.7833 90.1263 86.4 89.8837 86.0196 89.7502C86.0323 89.6058 86.0487 89.4551 86.0613 89.3108L86.0611 89.314Z" fill="white"/>
<path fill-rule="evenodd" clip-rule="evenodd" d="M72.9635 52.8094C72.9635 67.4245 61.107 79.2693 46.4814 79.2693C31.8558 79.2693 20.0025 67.4245 20.0025 52.8094C20.0025 38.1943 31.8591 26.3462 46.4814 26.3462C61.1037 26.3462 72.9635 38.1943 72.9635 52.8094Z" fill="white"/>
<path d="M59.0495 56.6723C65.9917 49.7351 65.9917 38.4876 59.0495 31.5504C52.1073 24.6131 40.8518 24.6131 33.9096 31.5504C26.9675 38.4876 26.9675 49.7351 33.9096 56.6723C40.8518 63.6095 52.1073 63.6095 59.0495 56.6723Z" fill="#BF1818"/>
<path d="M101.595 35.3935C101.418 35.5679 99.7251 37.3972 99.7251 37.3972V65.9892C99.7251 65.9892 101.421 67.7725 101.595 67.9897C101.655 68.0324 101.655 68.3384 101.595 68.3384H96.1198C96.0408 68.3384 96.0408 68.0324 96.1198 67.9897C96.2976 67.7725 97.99 65.9892 97.99 65.9892V38.9206L93.0873 67.6837C92.9293 68.5983 92.8503 68.47 92.712 67.6837L87.6513 39.3549V65.9892C87.6513 65.9892 89.3437 67.7725 89.5215 67.9897C89.6005 68.0324 89.6005 68.3384 89.5215 68.3384H84.0459C83.99 68.3384 83.99 68.0324 84.0459 67.9897C84.2237 67.7725 85.9392 65.9892 85.9392 65.9892V37.3972C85.9392 37.3972 84.227 35.5679 84.0459 35.3935C83.99 35.3047 83.99 35.002 84.0459 35.002H88.4777L92.926 58.7606L97.0022 35.002H101.589C101.648 35.002 101.648 35.3047 101.589 35.3935H101.595Z" fill="white"/>
<path d="M113.109 35.3935C113.053 35.3047 113.053 35.002 113.109 35.002H118.585C118.664 35.002 118.664 35.3047 118.585 35.3935C118.407 35.5679 116.715 37.3972 116.715 37.3972V56.5463C116.715 60.0701 116.912 64.5547 114.943 67.2494C113.09 69.7729 109.017 69.7302 107.183 67.4665C105.076 64.9429 105.174 61.3303 105.174 57.2405V37.3084C105.174 37.3084 103.479 35.5679 103.281 35.3935C103.222 35.3047 103.222 35.002 103.281 35.002H108.776C108.836 35.002 108.836 35.3047 108.776 35.3935C108.582 35.5679 106.89 37.3972 106.89 37.3972V56.1942C106.89 58.5895 106.771 62.8964 108.207 64.7258C109.31 66.2064 112.481 66.0748 113.544 64.7685C115.138 62.8536 114.999 58.2835 114.999 56.1547V37.3117C114.999 37.3117 113.307 35.5712 113.109 35.3968V35.3935Z" fill="white"/>
<path d="M127.588 47.1738C127.433 47.391 127.331 46.9994 127.433 46.825C128.082 45.736 128.73 44.7785 128.516 42.6465C128.319 40.5605 127.393 39.3398 126.468 38.7739C125.523 38.2507 122.708 37.9908 121.625 40.5605C121.035 41.9095 120.818 44.1271 121.075 45.7393C121.549 48.7399 123.38 49.3519 124.265 49.6579L126.883 50.6154C128.22 51.0957 130.347 51.8328 131.233 56.2318C131.707 58.581 131.723 62.062 131.035 64.5856C129.912 68.7214 127.532 69.5901 126.073 69.8072C124.437 70.1099 121.681 69.4157 120.028 64.8456C119.616 63.7137 119.34 62.4536 119.004 60.5387L122.234 56.8832C122.392 56.7088 122.432 57.1892 122.333 57.3175C121.408 58.4921 121.134 59.8839 121.348 61.6705C121.625 64.0197 122.688 65.5431 123.693 66.1518C124.875 66.8493 127.848 67.1092 129.069 64.1941C129.698 62.7596 129.955 60.0616 129.678 58.3211C129.204 55.1855 127.413 54.6656 126.33 54.228L124.107 53.445C123.222 53.139 120.561 52.1387 119.616 48.1378C119.146 46.1341 119.122 43.0874 119.597 40.7842C120.265 37.6059 121.427 35.9969 122.728 35.3422C124.246 34.5591 127.436 35.0362 128.971 37.7375C129.916 39.4319 130.291 41.133 130.801 43.7849L127.591 47.1804L127.588 47.1738Z" fill="white"/>
<path d="M136.547 66.7999C136.547 66.7999 138.242 68.5832 138.42 68.8003C138.499 68.8464 138.499 69.1491 138.42 69.1491H132.945C132.889 69.1491 132.889 68.8431 132.945 68.8003C133.122 68.5832 134.835 66.7999 134.835 66.7999V38.2079C134.835 38.2079 133.122 36.3785 132.945 36.2075C132.889 36.1186 132.889 35.8159 132.945 35.8159H138.42C138.499 35.8159 138.499 36.1219 138.42 36.2075C138.242 36.3818 136.547 38.2079 136.547 38.2079V50.3488H145.703V38.2079C145.703 38.2079 144.011 36.3785 143.833 36.2075C143.774 36.1186 143.774 35.8159 143.833 35.8159H149.305C149.384 35.8159 149.384 36.1219 149.305 36.2075C149.128 36.3818 147.435 38.2079 147.435 38.2079V66.7999C147.435 66.7999 149.131 68.5832 149.305 68.8003C149.384 68.8464 149.384 69.1491 149.305 69.1491H143.833C143.774 69.1491 143.774 68.8431 143.833 68.8003C144.011 68.5832 145.703 66.7999 145.703 66.7999V53.7015H136.547V66.7999Z" fill="white"/>
<path d="M156.49 68.8037C156.569 68.8498 156.569 69.1525 156.49 69.1525H151.014C150.955 69.1525 150.955 68.8465 151.014 68.8037C151.192 68.5866 152.904 66.8033 152.904 66.8033V38.2113C152.904 38.2113 151.192 36.382 151.014 36.2109C150.955 36.122 150.955 35.8193 151.014 35.8193H156.49C156.569 35.8193 156.569 36.1253 156.49 36.2109C156.312 36.3853 154.62 38.2113 154.62 38.2113V66.8033C154.62 66.8033 156.312 68.5866 156.49 68.8037Z" fill="white"/>
<path d="M171.787 69.1524L161.666 39.0798C161.666 39.0798 161.666 66.8459 161.666 66.7999C161.666 66.7999 163.358 68.5832 163.556 68.8003C163.615 68.8464 163.615 69.1491 163.556 69.1491H158.06C158.001 69.1491 158.001 68.8431 158.06 68.8003C158.258 68.5832 159.95 66.7999 159.95 66.7999V38.2079C159.95 38.2079 158.255 36.3785 158.06 36.2075C158.001 36.1186 158.001 35.8159 158.06 35.8159H162.63L170.862 59.1403V38.2079C170.862 38.2079 169.17 36.3785 168.972 36.2075C168.913 36.1186 168.913 35.8159 168.972 35.8159H174.464C174.523 35.8159 174.523 36.1219 174.464 36.2075C174.27 36.3818 172.574 38.2079 172.574 38.2079V69.1491H171.787V69.1524Z" fill="white"/>
<path d="M181.537 68.9934C181.596 69.0362 181.596 69.3422 181.537 69.3422H176.045C175.985 69.3422 175.985 69.0362 176.045 68.9934C176.239 68.7763 177.931 66.993 177.931 66.993V38.3977C177.931 38.3977 176.239 36.5717 176.045 36.3973C175.985 36.3084 175.985 36.0057 176.045 36.0057H181.537C181.596 36.0057 181.596 36.3117 181.537 36.3973C181.342 36.5717 179.65 38.3977 179.65 38.3977V55.6319L187.249 38.2661L185.099 36.5256C184.964 36.44 184.944 36.0913 185.099 36.0024H191.855C192.014 36.0024 191.994 36.44 191.872 36.5256L189.353 38.2661L184.098 50.3214L189.966 66.9041L192.251 68.7763C192.425 68.9079 192.488 69.3422 192.31 69.3422H185.557C185.376 69.3422 185.399 68.8618 185.537 68.7763L188.059 66.9469L182.979 52.8023L179.65 60.1987V66.9897C179.65 66.9897 181.342 68.773 181.537 68.9902V68.9934Z" fill="white"/>
<path d="M208.964 68.9935C209.039 69.0363 209.039 69.3423 208.964 69.3423H203.488C203.429 69.3423 203.429 69.0363 203.488 68.9935C203.666 68.7764 205.381 66.9931 205.381 66.9931L204.199 60.6825H197.522L196.403 66.9931C196.403 66.9931 198.213 68.7764 198.411 68.9935C198.47 69.0363 198.47 69.3423 198.411 69.3423H192.919C192.86 69.3423 192.86 69.0363 192.919 68.9935C193.113 68.7764 194.829 66.9931 194.829 66.9931L199.87 38.3978C199.87 38.3978 198.194 36.5718 198.016 36.3974C197.957 36.3086 197.957 36.0059 198.016 36.0059H203.488C203.57 36.0059 203.57 36.3119 203.488 36.3974C203.31 36.5718 201.618 38.3978 201.618 38.3978L207.051 66.9931C207.051 66.9931 208.786 68.7764 208.964 68.9935ZM203.607 57.5897L200.732 42.3593L198.055 57.5897H203.607Z" fill="white"/>
<path d="M223.708 69.3389L213.586 39.2696C213.586 39.2696 213.586 67.0325 213.586 66.9897C213.586 66.9897 215.282 68.773 215.476 68.9902C215.536 69.0329 215.536 69.3389 215.476 69.3389H209.981C209.922 69.3389 209.922 69.0329 209.981 68.9902C210.179 68.773 211.871 66.9897 211.871 66.9897V38.3944C211.871 38.3944 210.179 36.5684 209.981 36.394C209.922 36.3051 209.922 36.0024 209.981 36.0024H214.551L222.783 59.3301V38.3977C222.783 38.3977 221.09 36.5717 220.893 36.3973C220.833 36.3084 220.833 36.0057 220.893 36.0057H226.385C226.444 36.0057 226.444 36.3117 226.385 36.3973C226.19 36.5717 224.498 38.3977 224.498 38.3977V69.3389H223.711H223.708Z" fill="white"/>
<path d="M233.792 43.8921C233.792 43.8921 233.805 43.9612 233.792 43.9612H232.699C232.699 43.9612 232.686 43.8987 232.699 43.8921C232.739 43.8526 233.074 43.494 233.074 43.494V37.8052C233.074 37.8052 232.739 37.44 232.699 37.4071C232.686 37.3906 232.686 37.3281 232.699 37.3281H233.792C233.792 37.3281 233.805 37.3874 233.792 37.4071C233.753 37.44 233.417 37.8052 233.417 37.8052V41.2336L234.931 37.7789L234.503 37.4334C234.477 37.4137 234.47 37.3446 234.503 37.3281H235.847C235.88 37.3281 235.873 37.4137 235.853 37.4334L235.35 37.7789L234.306 40.1742L235.475 43.4743L235.926 43.8493C235.962 43.8724 235.975 43.9612 235.939 43.9612H234.596C234.559 43.9612 234.563 43.8691 234.589 43.8493L235.089 43.4841L234.079 40.671L233.414 42.145V43.494C233.414 43.494 233.753 43.8493 233.789 43.8921H233.792Z" fill="#BF1818"/>
<path d="M239.386 43.8921C239.386 43.8921 239.403 43.9612 239.386 43.9612H238.296C238.296 43.9612 238.283 43.8987 238.296 43.8921C238.333 43.8526 238.672 43.494 238.672 43.494L238.435 42.2404H237.108L236.884 43.494C236.884 43.494 237.246 43.8493 237.282 43.8921C237.292 43.8987 237.292 43.9612 237.282 43.9612H236.189C236.189 43.9612 236.176 43.8987 236.189 43.8921C236.229 43.8526 236.571 43.494 236.571 43.494L237.572 37.8052C237.572 37.8052 237.24 37.44 237.203 37.4071C237.19 37.3906 237.19 37.3281 237.203 37.3281H238.293C238.293 37.3281 238.306 37.3874 238.293 37.4071C238.257 37.44 237.918 37.8052 237.918 37.8052L238.998 43.494C238.998 43.494 239.343 43.8493 239.38 43.8921H239.386ZM238.316 41.6252L237.747 38.5949L237.216 41.6252H238.316Z" fill="#BF1818"/>
<path d="M235.679 52.9038C235.679 52.9038 235.692 52.9762 235.679 52.9762H234.954L234.243 50.1236H233.526V52.5057C233.526 52.5057 233.865 52.8611 233.901 52.9005C233.911 52.9104 233.911 52.9729 233.901 52.9729H232.811C232.811 52.9729 232.798 52.9104 232.811 52.9005C232.851 52.8578 233.186 52.5057 233.186 52.5057V46.8169C233.186 46.8169 232.851 46.4517 232.811 46.4188C232.798 46.3991 232.798 46.3398 232.811 46.3398H234.283C234.658 46.3398 235.099 46.33 235.356 47.1953C235.511 47.725 235.511 48.5114 235.415 48.9983C235.248 49.8012 234.918 50.0183 234.615 50.1137L235.218 52.5189C235.218 52.5189 235.649 52.8578 235.685 52.8972L235.679 52.9038ZM234.263 49.4688C234.467 49.4688 234.895 49.5281 235.08 48.8536C235.162 48.5311 235.152 47.8204 235.083 47.5704C234.918 46.9222 234.438 46.9847 234.283 46.9847H233.529V49.4688H234.266H234.263Z" fill="#BF1818"/>
<path d="M239.383 52.904C239.399 52.9138 239.399 52.9763 239.383 52.9763H238.293C238.293 52.9763 238.283 52.9138 238.293 52.904C238.329 52.8612 238.672 52.5091 238.672 52.5091L238.435 51.2523H237.108L236.881 52.5091C236.881 52.5091 237.243 52.8645 237.282 52.904C237.296 52.9138 237.296 52.9763 237.282 52.9763H236.193C236.193 52.9763 236.179 52.9138 236.193 52.904C236.229 52.8612 236.571 52.5091 236.571 52.5091L237.575 46.8203C237.575 46.8203 237.243 46.4551 237.207 46.4222C237.193 46.4025 237.193 46.3433 237.207 46.3433H238.296C238.296 46.3433 238.313 46.4025 238.296 46.4222C238.26 46.4551 237.924 46.8203 237.924 46.8203L239.004 52.5091C239.004 52.5091 239.35 52.8645 239.386 52.904H239.383ZM238.316 50.637L237.743 47.6034L237.213 50.637H238.316Z" fill="#BF1818"/>
<path d="M234.461 61.7514C234.461 61.7514 234.796 62.1067 234.833 62.1495C234.849 62.1594 234.849 62.2186 234.833 62.2186H233.746C233.746 62.2186 233.733 62.1594 233.746 62.1495C233.779 62.1067 234.121 61.7514 234.121 61.7514V56.2732H233.094L232.956 56.9575C232.939 57.0234 232.91 57.0234 232.916 56.9477V55.2861C232.916 55.2006 232.946 55.217 232.963 55.2697L233.078 55.5888H235.501L235.616 55.2697C235.633 55.2269 235.669 55.2006 235.669 55.2861V56.9477C235.669 57.0003 235.636 57.0168 235.629 56.9575L235.485 56.2732H234.461V61.7514Z" fill="#BF1818"/>
<path d="M236.318 62.1493C236.351 62.1065 236.693 61.7512 236.693 61.7512V56.0624C236.693 56.0624 236.351 55.7004 236.318 55.6643C236.301 55.6478 236.301 55.5853 236.318 55.5853H238.787L238.909 55.3188C238.935 55.2398 238.955 55.2925 238.955 55.3616V57.3094C238.955 57.3423 238.925 57.3423 238.922 57.3094C238.906 57.2304 238.711 56.2236 238.711 56.2236H237.029V58.4741H238.145C238.145 58.4741 238.366 57.3916 238.385 57.3061C238.389 57.2797 238.418 57.2797 238.418 57.3061V60.2771C238.418 60.3035 238.389 60.3035 238.385 60.2771C238.366 60.1982 238.145 59.1058 238.145 59.1058H237.029V61.557H238.761L238.971 60.2673C238.981 60.2146 239.011 60.2146 239.011 60.2837V62.6889C239.011 62.7349 238.988 62.7678 238.962 62.6987L238.748 62.2118H236.318C236.318 62.2118 236.301 62.1526 236.318 62.1427V62.1493Z" fill="#BF1818"/>
<path d="M232.972 71.2867C233.012 71.2439 233.351 70.8852 233.351 70.8852V65.1998C233.351 65.1998 233.012 64.8378 232.972 64.8016C232.959 64.7852 232.959 64.7227 232.972 64.7227H234.345C234.744 64.7227 235.241 64.7062 235.527 65.8742C235.801 66.9699 235.814 69.0691 235.518 70.168C235.192 71.3623 234.879 71.3525 234.355 71.3525H232.976C232.976 71.3525 232.962 71.2932 232.976 71.2867H232.972ZM234.24 70.7306C234.615 70.7306 234.948 70.8194 235.195 69.8982C235.435 69.0296 235.425 67.1015 235.211 66.2427C234.978 65.2919 234.53 65.3347 234.247 65.3347H233.687V70.7273H234.24V70.7306Z" fill="#BF1818"/>
<path d="M238.896 65.5909C239.288 66.601 239.301 68.2296 239.176 69.2101C239.047 70.2301 238.807 71.0098 238.287 71.3652C237.957 71.6087 237.368 71.5626 236.976 70.8651C236.466 69.9471 236.403 68.6409 236.459 67.5387C236.502 66.5615 236.65 65.5382 237.203 64.9065C237.365 64.7255 237.526 64.6301 237.664 64.5841C237.994 64.4886 238.534 64.6729 238.896 65.5909ZM237.565 70.7565C237.822 70.9309 238.168 70.8618 238.402 70.4604C238.79 69.8155 238.902 68.5389 238.899 67.8907C238.899 67.338 238.81 66.2193 238.425 65.6238C238.145 65.1796 237.753 65.2092 237.526 65.3572C236.861 65.7817 236.634 67.8841 236.881 69.2298C237.029 70.0261 237.223 70.5361 237.569 70.7598L237.565 70.7565Z" fill="#BF1818"/>
<path d="M240.917 73.2968H231V35.002H240.917V73.2968ZM231.165 73.1323H240.753V35.1665H231.165V73.1323Z" fill="#BF1818"/>
</svg>
